<?xml version="1.0" encoding="utf-8"?>
<!-- Generator: Adobe Illustrator 27.5.0, SVG Export Plug-In . SVG Version: 6.00 Build 0)  -->
<svg version="1.1" id="Réteg_1" xmlns="http://www.w3.org/2000/svg" xmlns:xlink="http://www.w3.org/1999/xlink" x="0px" y="0px"
	 viewBox="0 0 800 800" style="enable-background:new 0 0 800 800;" xml:space="preserve">
<g>
	<g>
		<radialGradient id="SVGID_1_" cx="400" cy="399.9985" r="565.687" gradientUnits="userSpaceOnUse">
			<stop  offset="0" style="stop-color:#FFFFFF"/>
			<stop  offset="0.1" style="stop-color:#FBFBFB"/>
			<stop  offset="1" style="stop-color:#6D6E71"/>
		</radialGradient>
		<rect style="fill-rule:evenodd;clip-rule:evenodd;fill:url(#SVGID_1_);" width="800" height="799.997"/>
		
			<radialGradient id="SVGID_00000088114697812505949580000004310942408954165433_" cx="400" cy="399.999" r="565.684" gradientUnits="userSpaceOnUse">
			<stop  offset="0" style="stop-color:#FFFFFF"/>
			<stop  offset="0.25" style="stop-color:#FFFFFF"/>
			<stop  offset="0.64" style="stop-color:#6D6E71"/>
			<stop  offset="1" style="stop-color:#6D6E71"/>
		</radialGradient>
		<path style="fill-rule:evenodd;clip-rule:evenodd;fill:url(#SVGID_00000088114697812505949580000004310942408954165433_);" d="
			M800,0.83l-0.831-0.831H800V0.83L800,0.83z M793.214-0.001h-6.882L800,13.669V6.785L793.214-0.001L793.214-0.001z M780.367-0.001
			h-6.878L800,26.509V19.63L780.367-0.001L780.367-0.001z M767.524-0.001h-6.877L800,39.354v-6.882L767.524-0.001L767.524-0.001z
			 M754.688-0.001h-6.882L800,52.195v-6.884L754.688-0.001L754.688-0.001z M741.846-0.001h-6.887L800,65.038v-6.885L741.846-0.001
			L741.846-0.001z M729.003-0.001h-6.882L800,77.88v-6.885L729.003-0.001L729.003-0.001z M716.161-0.001h-6.882L800,90.722V83.84
			L716.161-0.001L716.161-0.001z M703.319-0.001h-6.882L800,103.559v-6.877L703.319-0.001L703.319-0.001z M690.477-0.001h-6.883
			L800,116.402v-6.883L690.477-0.001L690.477-0.001z M677.635-0.001h-6.882L800,129.242v-6.877L677.635-0.001L677.635-0.001z
			 M664.793-0.001h-6.882L800,142.087v-6.882L664.793-0.001L664.793-0.001z M651.956-0.001h-6.887L800,154.927v-6.882L651.956-0.001
			L651.956-0.001z M639.108-0.001h-6.882L800,167.769v-6.88L639.108-0.001L639.108-0.001z M626.267-0.001h-6.877L800,180.61v-6.882
			L626.267-0.001L626.267-0.001z M613.43-0.001h-6.887L800,193.457v-6.892L613.43-0.001L613.43-0.001z M600.583-0.001h-6.882
			L800,206.297v-6.882L600.583-0.001L600.583-0.001z M587.745-0.001h-6.887L800,219.139v-6.884L587.745-0.001L587.745-0.001z
			 M574.898-0.001h-6.877L800,231.977v-6.88L574.898-0.001L574.898-0.001z M562.061-0.001h-6.887L800,244.821v-6.885L562.061-0.001
			L562.061-0.001z M549.219-0.001h-6.882L800,257.663v-6.887L549.219-0.001L549.219-0.001z M536.377-0.001h-6.887L800,270.505
			v-6.884L536.377-0.001L536.377-0.001z M523.535-0.001h-6.882L800,283.347v-6.882L523.535-0.001L523.535-0.001z M510.693-0.001
			h-6.882L800,296.19v-6.885L510.693-0.001L510.693-0.001z M497.851-0.001h-6.887L800,309.031v-6.882L497.851-0.001L497.851-0.001z
			 M485.009-0.001h-6.887L800,321.873v-6.882L485.009-0.001L485.009-0.001z M472.167-0.001h-6.877L800,334.711v-6.88L472.167-0.001
			L472.167-0.001z M459.324-0.001h-6.882L800,347.553v-6.882L459.324-0.001L459.324-0.001z M446.487-0.001h-6.887L800,360.398
			v-6.885L446.487-0.001L446.487-0.001z M433.641-0.001h-6.887L800,373.244v-6.89L433.641-0.001L433.641-0.001z M420.799-0.001
			h-6.882L800,386.081v-6.882L420.799-0.001L420.799-0.001z M407.956-0.001h-6.882L800,398.921v-6.88L407.956-0.001L407.956-0.001z
			 M395.114-0.001h-6.877L800,411.763v-6.877L395.114-0.001L395.114-0.001z M382.274-0.001h-6.884L800,424.609v-6.887L382.274-0.001
			L382.274-0.001z M369.433-0.001h-6.882L800,437.447v-6.883L369.433-0.001L369.433-0.001z M356.59-0.001h-6.884L800,450.289v-6.882
			L356.59-0.001L356.59-0.001z M343.749-0.001h-6.879L800,463.131v-6.882L343.749-0.001L343.749-0.001z M330.909-0.001h-6.884
			L800,475.973v-6.887L330.909-0.001L330.909-0.001z M318.064-0.001h-6.88L800,488.815v-6.882L318.064-0.001L318.064-0.001z
			 M305.225-0.001h-6.884L800,501.657v-6.882L305.225-0.001L305.225-0.001z M292.38-0.001h-6.88L800,514.494v-6.877L292.38-0.001
			L292.38-0.001z M279.538-0.001h-6.882L800,527.341v-6.882L279.538-0.001L279.538-0.001z M266.696-0.001h-6.885L800,540.184v-6.882
			L266.696-0.001L266.696-0.001z M253.856-0.001h-6.884L800,553.025v-6.887L253.856-0.001L253.856-0.001z M241.017-0.001h-6.884
			L800,565.867v-6.887L241.017-0.001L241.017-0.001z M228.175-0.001h-6.887L800,578.71v-6.887L228.175-0.001L228.175-0.001z
			 M215.33-0.001h-6.882L800,591.547v-6.877L215.33-0.001L215.33-0.001z M202.488-0.001h-6.884L800,604.393v-6.882L202.488-0.001
			L202.488-0.001z M189.644-0.001h-6.877L800,617.229v-6.877L189.644-0.001L189.644-0.001z M176.804-0.001h-6.882L800,630.077
			v-6.887L176.804-0.001L176.804-0.001z M163.962-0.001h-6.882L800,642.914v-6.877L163.962-0.001L163.962-0.001z M151.118-0.001
			h-6.88L800,655.756v-6.877L151.118-0.001L151.118-0.001z M138.28-0.001h-6.882L800,668.599v-6.882L138.28-0.001L138.28-0.001z
			 M125.438-0.001h-6.884L800,681.445v-6.887L125.438-0.001L125.438-0.001z M112.599-0.001h-6.88L800,694.277V687.4L112.599-0.001
			L112.599-0.001z M99.754-0.001h-6.887L800,707.129v-6.887L99.754-0.001L99.754-0.001z M86.912-0.001H80.03L800,719.967v-6.882
			L86.912-0.001L86.912-0.001z M74.072-0.001h-6.887L800,732.813v-6.887L74.072-0.001L74.072-0.001z M61.235-0.001h-6.887
			L800,745.65v-6.887L61.235-0.001L61.235-0.001z M48.386-0.001h-6.882L800,758.493v-6.883L48.386-0.001L48.386-0.001z
			 M35.543-0.001h-6.879L800,771.335v-6.882L35.543-0.001L35.543-0.001z M22.702-0.001h-6.879L800,784.177v-6.882L22.702-0.001
			L22.702-0.001z M9.859-0.001H2.982L800,797.014v-6.877L9.859-0.001L9.859-0.001z M0,2.979l797.019,797.021h-6.877L0,9.858V2.979
			L0,2.979z M0,15.821l784.178,784.178h-6.877L0,22.703V15.821L0,15.821z M0,28.66l771.336,771.339h-6.877L0,35.54V28.66L0,28.66z
			 M0,41.503l758.498,758.496h-6.887L0,48.385V41.503L0,41.503z M0,54.345l745.651,745.654h-6.887L0,61.233V54.345L0,54.345z
			 M0,67.185l732.815,732.814h-6.887L0,74.068V67.185L0,67.185z M0,80.028l719.973,719.971h-6.882L0,86.911V80.028L0,80.028z
			 M0,92.866l707.135,707.133h-6.887L0,99.753V92.866L0,92.866z M0,105.715l694.283,694.284h-6.882L0,112.597V105.715L0,105.715z
			 M0,118.549l681.446,681.45h-6.882L0,125.434V118.549L0,118.549z M0,131.397l668.604,668.603h-6.883L0,138.278V131.397L0,131.397z
			 M0,144.235l655.762,655.764h-6.877L0,151.115V144.235L0,144.235z M0,157.078l642.92,642.921h-6.882L0,163.957V157.078L0,157.078z
			 M0,169.918l630.078,630.081h-6.882L0,176.802V169.918L0,169.918z M0,182.765l617.235,617.234h-6.882L0,189.642V182.765L0,182.765
			z M0,195.602l604.398,604.397h-6.887L0,202.486V195.602L0,195.602z M0,208.446l591.552,591.553h-6.882L0,215.325V208.446
			L0,208.446z M0,221.286l578.714,578.713h-6.887L0,228.173V221.286L0,221.286z M0,234.13l565.867,565.869h-6.882L0,241.015V234.13
			L0,234.13z M0,246.97l553.03,553.029h-6.887L0,253.855V246.97L0,246.97z M0,259.81l540.188,540.189h-6.882L0,266.696V259.81
			L0,259.81z M0,272.654l527.346,527.345h-6.882L0,279.536V272.654L0,272.654z M0,285.498l514.499,514.501h-6.877L0,292.376V285.498
			L0,285.498z M0,298.338l501.662,501.661h-6.887L0,305.22V298.338L0,298.338z M0,311.181l488.815,488.818h-6.878L0,318.063V311.181
			L0,311.181z M0,324.023l475.977,475.977h-6.887L0,330.906V324.023L0,324.023z M0,336.867l463.131,463.132h-6.877L0,343.746
			V336.867L0,336.867z M0,349.704l450.294,450.295h-6.882L0,356.588V349.704L0,349.704z M0,362.549l437.451,437.45h-6.882L0,369.431
			V362.549L0,362.549z M0,375.389l424.609,424.61h-6.882L0,382.271V375.389L0,375.389z M0,388.232l411.763,411.767h-6.877L0,395.109
			V388.232L0,388.232z M0,401.072l398.925,398.927h-6.882L0,407.956V401.072L0,401.072z M0,413.912l386.083,386.087h-6.882
			L0,420.794V413.912L0,413.912z M0,426.749l373.246,373.25h-6.887L0,433.641V426.749L0,426.749z M0,439.601l360.399,360.398h-6.884
			L0,446.482V439.601L0,439.601z M0,452.442l347.555,347.557h-6.879L0,459.324V452.442L0,452.442z M0,465.285l334.713,334.714h-6.88
			L0,472.167V465.285L0,465.285z M0,478.122l321.878,321.877h-6.884L0,485.004V478.122L0,478.122z M0,490.964l309.036,309.035
			h-6.884L0,497.846V490.964L0,490.964z M0,503.807l296.191,296.192h-6.884L0,510.689V503.807L0,503.807z M0,516.648
			l283.349,283.351h-6.882L0,523.53V516.648L0,516.648z M0,529.49l270.51,270.509h-6.887L0,536.372V529.49L0,529.49z M0,542.332
			l257.665,257.667h-6.884L0,549.219V542.332L0,542.332z M0,555.175l244.825,244.824h-6.887L0,562.057V555.175L0,555.175z
			 M0,568.017l231.979,231.982h-6.877L0,574.898V568.017L0,568.017z M0,580.854l219.144,219.146h-6.887L0,587.74V580.854L0,580.854z
			 M0,593.7l206.299,206.299h-6.882L0,600.577V593.7L0,593.7z M0,606.537l193.46,193.462h-6.889L0,613.429V606.537L0,606.537z
			 M0,619.384l180.613,180.615h-6.879L0,626.266V619.384L0,619.384z M0,632.226l167.773,167.773h-6.884L0,639.107V632.226L0,632.226
			z M0,645.068l154.931,154.931h-6.884L0,651.95V645.068L0,645.068z M0,657.905l142.091,142.094h-6.884L0,664.787V657.905L0,657.905
			z M0,670.752l129.247,129.247h-6.879L0,677.629V670.752L0,670.752z M0,683.59l116.405,116.409h-6.882L0,690.476V683.59L0,683.59z
			 M0,696.437l103.56,103.563h-6.877L0,703.313V696.437L0,696.437z M0,709.273l90.723,90.726h-6.882L0,716.155V709.273L0,709.273z
			 M0,722.115l77.881,77.884h-6.882L0,728.997V722.115L0,722.115z M0,734.958l65.041,65.041h-6.884L0,741.84V734.958L0,734.958z
			 M0,747.8l52.197,52.199h-6.884L0,754.687V747.8L0,747.8z M0,760.642l39.354,39.357h-6.882L0,767.523V760.642L0,760.642z
			 M0,773.483l26.513,26.516h-6.882L0,780.366V773.483L0,773.483z M0,786.326l13.67,13.673H6.786L0,793.208V786.326L0,786.326z
			 M0,799.163v0.836h0.831L0,799.163z"/>
	</g>
	<g style="opacity:0.49;">
		<path style="fill-rule:evenodd;clip-rule:evenodd;fill:#FFFFFF;" d="M154.74,147.575c88.185,0,176.424,0,264.612,0
			c88.185,0,176.422,0,264.664,0c4.527,0,8.238,3.716,8.238,8.265c0,88.246,0,176.493,0,264.688c0,88.194,0,176.441,0,264.631
			c0,4.551-3.711,8.238-8.238,8.1c-88.242-2.741-176.446-10.708-264.664-10.153c-88.256,0.559-176.42,11.467-264.612,18.64
			c-4.522,0.367-8.186-3.219-8.186-7.823c0-89.631,0-179.32,0-268.957c0-89.634,0-179.323,0-269.015
			C146.554,151.346,150.21,147.575,154.74,147.575z"/>
		<g>
			<path style="fill-rule:evenodd;clip-rule:evenodd;fill:#E0E1E2;" d="M154.74,149.462c88.185,0,176.424-0.029,264.612-0.058
				c88.18-0.026,176.422,0.058,264.664,0.058c3.548,0,6.385,2.829,6.385,6.378c0,88.246,0,176.496,0,264.63
				c0,88.194,0,176.441,0,264.636c0,3.548-2.841,6.485-6.385,6.375c-88.242-2.77-176.451-10.649-264.664-10.096
				c-88.256,0.559-176.422,11.386-264.612,18.583c-3.541,0.291-6.385-2.498-6.385-6.099c0-89.637,0-179.326,0-268.963
				c0-89.574,0-179.266,0-268.957C148.355,152.346,151.191,149.462,154.74,149.462z"/>
			<path style="fill-rule:evenodd;clip-rule:evenodd;fill:#C7C8CA;" d="M154.74,151.291c88.185,0,176.424-0.084,264.612-0.11
				c88.18-0.026,176.48,0.055,264.717,0.055c2.512,0,4.532,2.054,4.532,4.604c0,88.246,0,176.496,0,264.63
				c0,88.194,0,176.441,0,264.636c0,2.545-2.021,4.68-4.532,4.603c-88.242-2.808-176.504-10.649-264.717-10.096
				c-88.256,0.554-176.424,11.304-264.612,18.525c-2.562,0.21-4.584-1.777-4.584-4.385c0-89.632,0-179.268,0-268.899
				c0-89.579,0-179.214,0-268.905C150.155,153.344,152.175,151.291,154.74,151.291z"/>
			<path style="fill-rule:evenodd;clip-rule:evenodd;fill:#ABADB0;" d="M154.74,153.122c88.185-0.055,176.424-0.139,264.612-0.167
				c88.18-0.026,176.48,0.058,264.717,0.112c1.528,0,2.731,1.22,2.731,2.715c0,88.249,0,176.554,0,264.688
				c0,88.194,0,176.441,0,264.636c0,1.494-1.203,2.817-2.731,2.769c-88.242-2.779-176.504-10.593-264.717-10.038
				c-88.256,0.554-176.427,11.275-264.612,18.473c-1.528,0.119-2.784-1.113-2.784-2.665c0-89.579,0-179.211,0-268.848
				c0-89.577,0-179.269,0-268.902C151.956,154.343,153.211,153.122,154.74,153.122z"/>
			<path style="fill-rule:evenodd;clip-rule:evenodd;fill:#939598;" d="M154.74,154.951c88.185-0.053,176.424-0.222,264.612-0.222
				c88.185,0,176.48,0.112,264.717,0.112c0.491,0,0.931,0.443,0.931,0.94c0,88.249,0,176.554,0,264.688
				c0,88.194,0,176.441,0,264.636c0,0.554-0.439,1.013-0.931,0.998c-88.237-2.87-176.504-10.598-264.717-10.039
				c-88.256,0.555-176.429,11.189-264.612,18.411c-0.547,0.048-0.984-0.387-0.984-0.941c0-89.579,0-179.211,0-268.795
				c0-89.522,0-179.211,0-268.845C153.756,155.396,154.195,154.951,154.74,154.951z"/>
			<path style="fill-rule:evenodd;clip-rule:evenodd;fill:#7B7C7F;" d="M155.559,156.78c87.91-0.109,175.877-0.274,263.792-0.274
				c87.912,0,175.877,0.109,263.848,0.165c0,87.97,0,175.887,0,263.799c0,87.917,0,175.83,0,263.747
				c-87.971-2.832-175.906-10.512-263.848-9.929c-87.984,0.583-175.882,11.147-263.792,18.301c0-89.298,0-178.6,0-267.902
				C155.559,335.44,155.559,246.14,155.559,156.78z"/>
			<path style="fill-rule:evenodd;clip-rule:evenodd;fill:#636466;" d="M157.359,158.612c87.31-0.11,174.679-0.332,261.992-0.332
				c87.31,0,174.679,0.109,262.047,0.167c0,87.358,0,174.72,0,262.022c0,87.307,0,174.665,0,261.971
				c-87.368-2.885-174.708-10.482-262.047-9.929c-87.383,0.554-174.682,10.984-261.992,18.139c0-88.634,0-177.33,0-266.02
				C157.359,335.996,157.359,247.306,157.359,158.612z"/>
			<path style="fill-rule:evenodd;clip-rule:evenodd;fill:#464547;" d="M159.16,160.443c86.711-0.167,173.478-0.415,260.192-0.444
				c86.709-0.028,173.475,0.167,260.241,0.277c0,86.749,0,173.501,0,260.193c0,86.695,0,173.447,0,260.142
				c-86.766-2.885-173.504-10.431-260.241-9.872c-86.778,0.555-173.48,10.87-260.192,17.972c0-88.027,0-176.111,0-264.134
				C159.16,336.605,159.16,248.523,159.16,160.443z"/>
			<path style="fill-rule:evenodd;clip-rule:evenodd;" d="M160.96,162.274c86.112-0.167,172.279-0.473,258.391-0.499
				c86.107-0.028,172.276,0.22,258.441,0.277c0,86.139,0,172.334,0,258.417c0,86.084,0,172.281,0,258.365
				c-86.165-2.995-172.306-10.373-258.441-9.819c-86.177,0.554-172.279,10.655-258.391,17.752c0-87.416,0-174.832,0-262.248
				C160.96,337.161,160.96,249.746,160.96,162.274z"/>
		</g>
	</g>
	<g>
		
			<radialGradient id="SVGID_00000121263114879503516100000005710812660173742481_" cx="398.8486" cy="398.7832" r="385.8694" gradientUnits="userSpaceOnUse">
			<stop  offset="0" style="stop-color:#FFFFFF"/>
			<stop  offset="1" style="stop-color:#E6E7E8"/>
		</radialGradient>
		
			<rect x="125.999" y="125.934" style="fill-rule:evenodd;clip-rule:evenodd;fill:url(#SVGID_00000121263114879503516100000005710812660173742481_);" width="545.699" height="545.699"/>
		
			<radialGradient id="SVGID_00000078760184792078400090000004953358483524764546_" cx="415.2192" cy="409.4668" r="405.0188" gradientUnits="userSpaceOnUse">
			<stop  offset="0" style="stop-color:#FFFFFF"/>
			<stop  offset="0.4019" style="stop-color:#F9FAFA"/>
			<stop  offset="0.7786" style="stop-color:#EFF0F0"/>
			<stop  offset="1" style="stop-color:#E6E7E8"/>
		</radialGradient>
		
			<polygon style="fill-rule:evenodd;clip-rule:evenodd;fill:url(#SVGID_00000078760184792078400090000004953358483524764546_);" points="
			125.997,125.934 671.698,125.934 671.698,338.995 125.997,514.338 		"/>
		<path style="fill:#939598;" d="M287.573,385.347c-1.595-0.122-3.188-0.243-4.905-0.243c-20.466,0-43.015,15.563-43.015,31.861
			c0,8.825,4.656,11.887,13.114,11.887c-0.124-1.104-1.717-2.082-1.717-8.329c0-13.114,6.495-22.308,17.157-26.721l-17.768,83.213
			h17.646L287.573,385.347L287.573,385.347z M350.442,432.653c0-4.046-1.471-6.252-4.413-6.252c-4.413,0-7.72,5.148-9.559,11.275
			l-8.334,39.362h-17.649l8.948-42.304c0.246-0.979,0.368-1.958,0.368-3.066c0-2.693-0.979-5.392-3.675-5.392
			c-4.781,0-8.088,5.272-9.929,11.4l-8.333,39.362h-17.668l13.014-61.302h17.646l-1.351,6.375c5.15-5.883,10.664-6.986,14.955-6.986
			c6.495,0,11.273,2.941,12.62,10.54c5.884-9.069,12.501-10.416,17.038-10.416c7.842,0,13.602,4.045,13.602,13.845
			c0,9.929-5.882,24.758-5.882,31.621c0,3.065,1.225,5.147,4.902,5.147c4.303,0,6.569-2.813,8.683-7.188l-0.005-0.654
			c0-16.548,10.194-42.896,31.521-42.896c6.981,0,9.924,2.698,9.924,6.251v0.86l1.347-6.5h17.651l-8.826,41.673
			c-0.367,1.591-0.491,2.813-0.491,3.921c0,3.43,1.595,5.267,5.023,5.267c3.625,0,6.4-3.103,8.334-7.268
			c-0.014-0.43-0.019-0.864-0.019-1.309c0-16.548,10.191-42.896,31.515-42.896c6.987,0,9.93,2.698,9.93,6.251v0.735l1.347-6.375
			h17.646l-12.131,56.865c6.376-2.298,10.607-5.669,13.845-13.225c-0.014-0.367-0.019-0.73-0.019-1.112
			c0-14.094,7.984-43.627,33.11-43.627c10.907,0,13.481,5.636,13.481,11.763c0,14.094-13.481,25.001-28.186,25.861
			c-0.124,1.714-0.248,3.429-0.248,4.899c0,8.334,2.941,10.297,8.825,10.297c9.681,0,15.565-5.392,21.692-12.379h4.164
			c-6.982,11.275-17.398,22.689-33.698,22.689c-8.729,0-15.215-3.252-17.852-10.846c-4.838,6.935-10.941,9.633-16.219,11.094
			l-1.839,8.826c-3.677,17.522-13.969,20.832-22.059,20.832c-7.479,0-13.726-3.921-13.726-11.887
			c0-10.297,10.783-15.445,19.977-18.263l1.472-6.515c-3.559,3.797-8.334,6.758-14.71,6.758c-6.414,0-12.627-3.065-15.148-11.132
			c-6.419,9.551-14.008,11.132-19.041,11.132c-6.863,0-11.275-3.939-12.012-11.295c-3.796,5.641-9.556,11.295-18.26,11.295
			c-6.321,0-12.446-2.979-15.034-10.778c-5.872,9.308-12.429,10.778-17.319,10.778c-10.662,0-14.458-6.882-14.458-13.864
			C344.928,455.567,350.442,440.495,350.442,432.653L350.442,432.653z M410.736,422.724c-10.416,0-17.157,22.06-17.157,33.579
			c0,9.437,3.921,9.561,6.129,9.561c3.553,0,8.702-3.677,10.172-10.783l5.879-27.699
			C415.76,425.914,414.657,422.724,410.736,422.724L410.736,422.724z M475.199,422.724c-10.421,0-17.159,22.06-17.159,33.579
			c0,9.437,3.926,9.561,6.127,9.561c3.31,0,8.091-3.31,9.805-9.561l6.252-29.042C480.1,425.914,479.12,422.724,475.199,422.724
			L475.199,422.724z M456.201,494.069c0,1.72,1.471,4.045,4.169,4.045c2.574,0,5.517-3.677,7.107-10.907l0.735-3.554
			C461.966,485.984,456.201,489.169,456.201,494.069L456.201,494.069z M539.171,426.158c0-3.066-0.735-5.024-3.066-5.024
			c-6.246,0-12.254,13.109-14.704,25.245C530.837,445.768,539.171,436.33,539.171,426.158z"/>
		<path style="fill:#939598;" d="M273.088,551.303c-2.691,2.932-6.445,4.689-10.514,4.689c-5.674,0-7.092-3.782-7.092-9.222
			c0-12.055,5.79-27.6,12.293-27.6c2.658,0,3.604,1.715,3.604,3.61c0,2.24-1.299,4.724-2.718,5.435
			c1.123,1.3,2.424,1.533,3.37,1.533c3.013,0,4.136-2.302,4.136-5.435c0-5.735-4.313-7.918-9.869-7.918
			c-15.483,0-20.624,20.034-20.624,30.731c0,10.636,4.196,14.547,12.942,14.547c4.427,0,10.858-2.092,14.741-7.254
			c0.984,4.666,4.537,6.543,9.191,6.543c7.271,0,13.179-6.863,14.127-17.8c1.745-0.286,3.422-0.74,4.95-1.352l-4.016,18.917h8.52
			l4.019-18.983c0.888-2.951,2.483-5.492,4.788-5.492c1.299,0,1.774,1.299,1.774,2.598c0,0.53-0.06,1.008-0.179,1.48l-4.315,20.398
			h8.513l4.019-18.983c0.883-2.951,2.478-5.435,4.606-5.435c1.42,0,2.127,1.064,2.127,3.013c0,3.783-2.66,11.052-2.66,15.073
			c0,3.366,1.834,6.685,6.975,6.685c2.323,0,5.423-0.688,8.219-4.995c0.69,3.467,3.147,4.995,6.142,4.995
			c2.132,0,5.439-0.592,8.413-3.845l-0.74,3.491h8.52l4.018-18.983c0.886-2.951,2.483-5.435,4.611-5.435
			c1.416,0,2.125,1.064,2.125,3.013c0,3.783-2.658,11.052-2.658,15.073c0,3.366,1.832,6.685,6.975,6.685
			c2.357,0,5.518-0.712,8.35-5.201c1.247,3.764,4.198,5.201,7.25,5.201c3.076,0,5.378-1.428,7.087-3.262l-0.707,3.143
			c-4.432,1.361-9.633,3.845-9.633,8.807c0,3.84,3.016,5.73,6.619,5.73c3.902,0,8.864-1.595,10.641-10.043l0.884-4.256
			c3.667-1.017,8.156-3.262,10.459-11.065h-2.479c-1.657,5.144-3.839,7.154-7.445,8.453l5.846-27.422h-8.506l-0.65,3.075v-0.354
			c0-1.714-1.423-3.018-4.79-3.018c-10.282,0-15.196,12.709-15.196,20.689l0.003,0.311c-1.02,2.11-2.113,3.472-4.189,3.472
			c-1.772,0-2.364-1.008-2.364-2.483c0-3.31,2.836-10.459,2.836-15.249c0-4.729-2.777-6.677-6.56-6.677
			c-1.832,0-4.432,0.473-6.915,3.31l0.652-3.075h-8.51l-4.043,19.041c-0.898,2.923-3.009,5.134-5.294,5.134
			c-1.655,0-2.424-0.535-2.424-2.188c0-0.535,0.06-1.127,0.237-1.892l4.257-20.096h-8.513l-4.019,18.969
			c-1.301,3.076-2.364,5.206-4.964,5.206c-1.772,0-2.364-1.008-2.364-2.483c0-3.31,2.836-10.459,2.836-15.249
			c0-4.729-2.777-6.677-6.559-6.677c-2.188,0-5.378,0.649-8.214,5.024c-0.65-3.663-2.957-5.087-6.087-5.087
			c-2.07,0-4.728,0.535-7.211,3.372l0.652-3.075h-8.51l-1.676,7.898c-1.648,0.688-3.322,1.146-4.706,1.146
			c-0.177,0-0.413,0-0.65-0.119c0-6.204-2.483-9.456-7.565-9.456C277.293,530.638,273.208,544.396,273.088,551.303L273.088,551.303z
			 M284.913,555.634c-2.247,0-3.016-0.884-3.016-4.785c0-5.793,3.665-16.605,7.861-16.605c1.536,0,2.127,0.945,2.247,3.429
			c-1.065,0.469-1.834,1.533-1.834,3.19c0,1.18,0.356,2.188,1.595,2.483C290.823,550.318,287.808,555.634,284.913,555.634
			L284.913,555.634z M349.506,523.312c0-2.603,2.068-4.732,4.668-4.732c2.603,0,4.728,2.13,4.728,4.732
			c0,2.598-2.125,4.666-4.728,4.666C351.574,527.977,349.506,525.909,349.506,523.312L349.506,523.312z M406.18,534.539
			c1.892,0,2.364,1.533,2.422,2.188l-3.014,14.003c-0.826,3.014-3.133,4.613-4.728,4.613c-1.065,0-2.954-0.063-2.954-4.613
			C397.906,545.175,401.155,534.539,406.18,534.539L406.18,534.539z M397.02,568.944c0-2.369,2.774-3.902,5.793-5.024l-0.357,1.715
			c-0.765,3.486-2.188,5.258-3.427,5.258C397.727,570.893,397.02,569.771,397.02,568.944L397.02,568.944z M464.859,523.488
			c0-6.505-6.733-7.092-9.513-7.092c-7.622,0-13.649,4.432-13.649,10.578c0,8.688,12.111,12.293,12.111,22.398
			c0,4.962-2.895,7.857-6.854,7.857c-3.782,0-5.673-2.718-5.673-5.669c0-4.079,3.725-5.555,6.915-5.555
			c-0.177-3.075-3.133-3.901-5.201-3.901c-4.136,0-8.686,3.31-8.686,9.689c0,7.212,5.793,10.178,12.531,10.178
			c8.567,0,16.601-4.857,16.601-14.786c0-12.766-13.296-13.945-13.296-22.637c0-3.544,2.188-5.378,5.44-5.378
			c3.253,0,4.375,1.892,4.375,3.964c0,1.948-1.065,4.136-2.665,5.081c0.773,0.884,1.657,1.242,2.723,1.242
			C462.974,529.458,464.859,526.912,464.859,523.488L464.859,523.488z M481.766,530.638c-12.173,0-16.204,14.184-16.204,20.979
			c0,6.739,3.969,9.347,9.466,9.347c7.269,0,13.182-6.863,14.127-17.8c1.476-0.238,2.898-0.607,4.231-1.079
			c-1.323,3.463-1.877,7.006-1.877,9.532c0,6.739,3.969,9.347,9.461,9.347c7.273,0,13.181-6.863,14.127-17.8
			c1.747-0.286,3.424-0.74,4.952-1.352l-4.017,18.917h8.52l4.017-18.983c0.889-2.951,2.483-5.435,4.613-5.435
			c1.414,0,2.126,1.064,2.126,3.013c0,3.783-2.66,11.052-2.66,15.073c0,3.366,1.834,6.685,6.973,6.685
			c3.133,0,7.684-1.251,10.993-10.946h-2.483c-1.299,3.076-2.363,5.206-4.962,5.206c-1.772,0-2.364-1.008-2.364-2.483
			c0-3.31,2.837-10.459,2.837-15.249c0-4.729-2.779-6.677-6.561-6.677c-1.829,0-4.432,0.473-6.915,3.31l0.649-3.075h-8.506
			l-1.677,7.898c-1.652,0.688-3.323,1.146-4.708,1.146c-0.177,0-0.411,0-0.65-0.119c0-6.204-2.483-9.456-7.564-9.456
			c-6.29,0-10.406,3.787-12.914,8.386c-1.685,0.712-3.4,1.189-4.813,1.189c-0.177,0-0.416,0-0.649-0.119
			C489.331,533.89,486.848,530.638,481.766,530.638L481.766,530.638z M477.392,555.634c-2.245,0-3.014-0.884-3.014-4.785
			c0-5.793,3.663-16.605,7.861-16.605c1.532,0,2.125,0.945,2.244,3.429c-1.065,0.469-1.834,1.533-1.834,3.19
			c0,1.18,0.354,2.188,1.6,2.483C483.304,550.318,480.285,555.634,477.392,555.634L477.392,555.634z M503.333,555.634
			c-2.244,0-3.013-0.884-3.013-4.785c0-5.793,3.667-16.605,7.86-16.605c1.538,0,2.13,0.945,2.25,3.429
			c-1.065,0.469-1.834,1.533-1.834,3.19c0,1.18,0.354,2.188,1.595,2.483C509.246,550.318,506.232,555.634,503.333,555.634z"/>
		
			<radialGradient id="SVGID_00000106862301363990151530000002774926963780383146_" cx="355.0849" cy="462.5805" r="215.5695" gradientUnits="userSpaceOnUse">
			<stop  offset="0" style="stop-color:#F1F2F2"/>
			<stop  offset="1" style="stop-color:#BCBEC0"/>
		</radialGradient>
		<path style="fill:url(#SVGID_00000106862301363990151530000002774926963780383146_);" d="M289.531,386.829
			c-1.595-0.121-3.188-0.243-4.902-0.243c-20.466,0-43.015,15.565-43.015,31.864c0,8.825,4.656,11.887,13.112,11.887
			c-0.122-1.104-1.714-2.082-1.714-8.334c0-13.114,6.493-22.303,17.154-26.716L252.397,478.5h17.646L289.531,386.829
			L289.531,386.829z M352.4,434.138c0-4.045-1.471-6.251-4.413-6.251c-4.41,0-7.717,5.144-9.559,11.275l-8.332,39.357h-17.648
			l8.947-42.299c0.246-0.984,0.365-1.963,0.365-3.066c0-2.693-0.979-5.392-3.675-5.392c-4.778,0-8.088,5.268-9.927,11.399
			l-8.336,39.357h-17.665l13.012-61.297h17.646l-1.349,6.37c5.148-5.879,10.664-6.982,14.953-6.982
			c6.495,0,11.273,2.941,12.623,10.54c5.881-9.069,12.5-10.421,17.035-10.421c7.842,0,13.604,4.045,13.604,13.85
			c0,9.929-5.881,24.758-5.881,31.62c0,3.062,1.225,5.148,4.9,5.148c4.303,0,6.569-2.817,8.685-7.192l-0.005-0.654
			c0-16.543,10.194-42.891,31.518-42.891c6.982,0,9.924,2.698,9.924,6.251v0.855l1.347-6.495h17.651l-8.825,41.668
			c-0.368,1.591-0.487,2.818-0.487,3.921c0,3.43,1.59,5.272,5.023,5.272c3.62,0,6.4-3.104,8.329-7.273
			c-0.014-0.43-0.019-0.864-0.019-1.309c0-16.543,10.196-42.891,31.52-42.891c6.982,0,9.925,2.698,9.925,6.251v0.73l1.347-6.37
			h17.651l-12.136,56.865c6.376-2.303,10.607-5.674,13.845-13.225c-0.009-0.367-0.019-0.735-0.019-1.112
			c0-14.099,7.989-43.632,33.11-43.632c10.908,0,13.481,5.641,13.481,11.768c0,14.093-13.481,24.996-28.186,25.856
			c-0.124,1.719-0.243,3.434-0.243,4.904c0,8.329,2.938,10.292,8.82,10.292c9.685,0,15.564-5.392,21.692-12.379h4.169
			c-6.987,11.275-17.403,22.694-33.703,22.694c-8.725,0-15.215-3.252-17.852-10.846c-4.838,6.93-10.941,9.628-16.219,11.089
			l-1.838,8.826c-3.678,17.522-13.97,20.832-22.06,20.832c-7.475,0-13.726-3.921-13.726-11.887c0-10.297,10.783-15.44,19.977-18.258
			l1.472-6.52c-3.559,3.802-8.334,6.763-14.71,6.763c-6.414,0-12.627-3.07-15.144-11.132c-6.419,9.551-14.008,11.132-19.046,11.132
			c-6.863,0-11.275-3.944-12.012-11.295c-3.796,5.636-9.556,11.295-18.257,11.295c-6.323,0-12.446-2.98-15.034-10.783
			c-5.872,9.308-12.429,10.783-17.319,10.783c-10.662,0-14.461-6.882-14.461-13.869C346.886,457.053,352.4,441.98,352.4,434.138
			L352.4,434.138z M412.694,424.209c-10.416,0-17.157,22.06-17.157,33.579c0,9.436,3.923,9.56,6.13,9.56
			c3.553,0,8.701-3.677,10.172-10.788l5.879-27.695C417.718,427.395,416.62,424.209,412.694,424.209L412.694,424.209z
			 M477.157,424.209c-10.416,0-17.159,22.06-17.159,33.579c0,9.436,3.926,9.56,6.127,9.56c3.31,0,8.091-3.309,9.805-9.56
			l6.252-29.047C482.063,427.395,481.078,424.209,477.157,424.209L477.157,424.209z M458.159,495.555
			c0,1.715,1.471,4.045,4.17,4.045c2.573,0,5.516-3.677,7.105-10.908l0.736-3.553C463.924,487.465,458.159,490.654,458.159,495.555
			L458.159,495.555z M541.129,427.639c0-3.062-0.735-5.024-3.062-5.024c-6.251,0-12.254,13.114-14.709,25.249
			C532.795,447.248,541.129,437.811,541.129,427.639z"/>
		
			<radialGradient id="SVGID_00000101072084529088254980000003293856822753246641_" cx="404.6075" cy="489.6208" r="169.0262" gradientUnits="userSpaceOnUse">
			<stop  offset="0" style="stop-color:#F1F2F2"/>
			<stop  offset="1" style="stop-color:#BCBEC0"/>
		</radialGradient>
		<path style="fill:url(#SVGID_00000101072084529088254980000003293856822753246641_);" d="M253.494,473.371l-1.096,5.129h17.646
			l2.385-11.213L253.494,473.371L253.494,473.371z M351.382,441.918c-1.592,7.813-4.496,17.417-4.496,23.468
			c0,6.987,3.799,13.869,14.461,13.869c4.891,0,11.448-1.476,17.319-10.783c2.588,7.803,8.711,10.783,15.034,10.783
			c8.702,0,14.461-5.659,18.257-11.295c0.736,7.351,5.148,11.295,12.012,11.295c5.038,0,12.627-1.581,19.046-11.132
			c2.517,8.062,8.729,11.132,15.144,11.132c6.376,0,11.151-2.961,14.71-6.763l-1.472,6.52c-9.193,2.817-19.977,7.961-19.977,18.258
			c0,7.966,6.251,11.887,13.726,11.887c8.09,0,18.382-3.31,22.06-20.832l1.838-8.826c5.277-1.461,11.381-4.159,16.219-11.089
			c2.637,7.594,9.127,10.846,17.852,10.846c16.3,0,26.716-11.419,33.703-22.694h-4.169c-6.128,6.987-12.007,12.379-21.692,12.379
			c-5.883,0-8.82-1.963-8.82-10.292c0-1.471,0.119-3.186,0.243-4.904c14.705-0.86,28.186-11.764,28.186-25.856
			c0-6.127-2.573-11.768-13.481-11.768c-25.121,0-33.11,29.533-33.11,43.632c0,0.377,0.01,0.745,0.019,1.112
			c-3.237,7.551-7.469,10.922-13.845,13.225l12.136-56.865h-17.651l-1.347,6.37v-0.73c0-3.553-2.942-6.251-9.925-6.251
			c-21.323,0-31.52,26.348-31.52,42.891c0,0.444,0.005,0.879,0.019,1.309c-1.929,4.17-4.709,7.273-8.329,7.273
			c-3.434,0-5.023-1.843-5.023-5.272c0-1.103,0.119-2.33,0.487-3.921l8.825-41.668h-9.58l-8.645,2.779l-0.773,3.716v-0.855
			c0-0.874-0.177-1.695-0.549-2.435l-32.531,10.449c-5.621,8.816-8.362,20.044-8.362,28.626l0.005,0.654
			c-2.116,4.375-4.382,7.192-8.685,7.192c-3.675,0-4.9-2.087-4.9-5.148c0-5.659,3.987-16.729,5.394-26.004L351.382,441.918
			L351.382,441.918z M285.427,463.108l-3.269,15.411h17.665l4.554-21.501L285.427,463.108L285.427,463.108z M317.914,452.668
			l-5.466,25.852h17.648l6.76-31.935L317.914,452.668L317.914,452.668z M412.694,424.209c3.926,0,5.023,3.185,5.023,4.656
			l-5.879,27.695c-1.471,7.111-6.619,10.788-10.172,10.788c-2.207,0-6.13-0.124-6.13-9.56
			C395.537,446.269,402.278,424.209,412.694,424.209L412.694,424.209z M477.157,424.209c3.921,0,4.905,3.185,5.024,4.532
			l-6.252,29.047c-1.714,6.251-6.495,9.56-9.805,9.56c-2.201,0-6.127-0.124-6.127-9.56
			C459.998,446.269,466.741,424.209,477.157,424.209L477.157,424.209z M458.159,495.555c0-4.9,5.765-8.09,12.012-10.416
			l-0.736,3.553c-1.59,7.232-4.532,10.908-7.105,10.908C459.63,499.6,458.159,497.27,458.159,495.555L458.159,495.555z
			 M541.129,427.639c0,10.172-8.334,19.609-17.771,20.225c2.455-12.135,8.458-25.249,14.709-25.249
			C540.394,422.614,541.129,424.577,541.129,427.639z"/>
		
			<radialGradient id="SVGID_00000036947756370555843030000013994584765912861830_" cx="402.4568" cy="487.8398" r="179.0179" gradientUnits="userSpaceOnUse">
			<stop  offset="0" style="stop-color:#F1F2F2"/>
			<stop  offset="1" style="stop-color:#BCBEC0"/>
		</radialGradient>
		<path style="fill:url(#SVGID_00000036947756370555843030000013994584765912861830_);" d="M274.356,552.306
			c-2.693,2.932-6.442,4.685-10.514,4.685c-5.674,0-7.092-3.782-7.092-9.217c0-12.059,5.79-27.6,12.293-27.6
			c2.658,0,3.605,1.715,3.605,3.605c0,2.245-1.301,4.729-2.72,5.435c1.123,1.3,2.424,1.538,3.367,1.538
			c3.016,0,4.138-2.307,4.138-5.435c0-5.735-4.315-7.923-9.869-7.923c-15.483,0-20.624,20.034-20.624,30.731
			c0,10.636,4.196,14.548,12.942,14.548c4.427,0,10.858-2.092,14.741-7.25c0.982,4.666,4.539,6.538,9.191,6.538
			c7.271,0,13.181-6.863,14.124-17.795c1.748-0.286,3.424-0.745,4.95-1.352l-4.014,18.912h8.52l4.019-18.978
			c0.886-2.956,2.483-5.497,4.788-5.497c1.299,0,1.772,1.299,1.772,2.598c0,0.535-0.06,1.008-0.177,1.48l-4.315,20.397h8.51
			l4.019-18.978c0.886-2.956,2.481-5.435,4.611-5.435c1.418,0,2.128,1.06,2.128,3.013c0,3.783-2.66,11.052-2.66,15.068
			c0,3.366,1.832,6.686,6.973,6.686c2.321,0,5.42-0.688,8.219-4.99c0.69,3.462,3.147,4.99,6.142,4.99c2.13,0,5.44-0.587,8.412-3.845
			l-0.74,3.491h8.52l4.019-18.978c0.886-2.956,2.481-5.435,4.611-5.435c1.416,0,2.126,1.06,2.126,3.013
			c0,3.783-2.658,11.052-2.658,15.068c0,3.366,1.832,6.686,6.973,6.686c2.359,0,5.518-0.707,8.35-5.2
			c1.247,3.763,4.201,5.2,7.25,5.2c3.076,0,5.378-1.428,7.092-3.257l-0.707,3.138c-4.436,1.361-9.635,3.845-9.635,8.807
			c0,3.845,3.013,5.735,6.622,5.735c3.896,0,8.863-1.595,10.636-10.048l0.888-4.256c3.663-1.012,8.152-3.257,10.459-11.061h-2.483
			c-1.652,5.144-3.839,7.15-7.445,8.453l5.851-27.422h-8.511l-0.649,3.075v-0.358c0-1.714-1.418-3.014-4.785-3.014
			c-10.282,0-15.199,12.709-15.199,20.685l0.002,0.315c-1.02,2.105-2.113,3.467-4.189,3.467c-1.774,0-2.364-1.003-2.364-2.483
			c0-3.31,2.837-10.459,2.837-15.244c0-4.728-2.779-6.682-6.562-6.682c-1.829,0-4.429,0.473-6.913,3.315l0.652-3.075h-8.511
			l-4.043,19.036c-0.898,2.923-3.009,5.134-5.294,5.134c-1.655,0-2.424-0.53-2.424-2.188c0-0.53,0.06-1.122,0.236-1.891
			l4.255-20.092h-8.51l-4.019,18.969c-1.299,3.076-2.364,5.201-4.964,5.201c-1.772,0-2.364-1.003-2.364-2.483
			c0-3.31,2.837-10.459,2.837-15.244c0-4.728-2.777-6.682-6.562-6.682c-2.185,0-5.375,0.654-8.212,5.025
			c-0.649-3.663-2.956-5.082-6.086-5.082c-2.07,0-4.728,0.53-7.211,3.372l0.652-3.075h-8.511l-1.676,7.898
			c-1.647,0.684-3.321,1.142-4.706,1.142c-0.176,0-0.413,0-0.649-0.119c0-6.204-2.481-9.451-7.565-9.451
			C278.561,531.641,274.476,545.399,274.356,552.306L274.356,552.306z M286.179,556.637c-2.245,0-3.013-0.884-3.013-4.79
			c0-5.788,3.665-16.601,7.861-16.601c1.535,0,2.127,0.945,2.247,3.424c-1.067,0.474-1.834,1.538-1.834,3.19
			c0,1.185,0.354,2.188,1.595,2.483C292.091,551.316,289.075,556.637,286.179,556.637L286.179,556.637z M350.773,524.31
			c0-2.598,2.07-4.728,4.668-4.728c2.601,0,4.728,2.13,4.728,4.728c0,2.602-2.127,4.671-4.728,4.671
			C352.844,528.981,350.773,526.912,350.773,524.31L350.773,524.31z M407.445,535.537c1.892,0,2.364,1.538,2.426,2.188
			l-3.018,14.008c-0.821,3.014-3.129,4.608-4.724,4.608c-1.064,0-2.956-0.058-2.956-4.608
			C399.174,546.178,402.421,535.537,407.445,535.537L407.445,535.537z M398.286,569.942c0-2.364,2.78-3.902,5.793-5.024
			l-0.354,1.715c-0.768,3.486-2.186,5.263-3.429,5.263C398.995,571.896,398.286,570.769,398.286,569.942L398.286,569.942z
			 M466.13,524.486c0-6.5-6.738-7.092-9.513-7.092c-7.627,0-13.654,4.437-13.654,10.578c0,8.688,12.116,12.293,12.116,22.398
			c0,4.967-2.895,7.861-6.854,7.861c-3.782,0-5.674-2.718-5.674-5.674c0-4.079,3.721-5.555,6.911-5.555
			c-0.172-3.075-3.128-3.901-5.201-3.901c-4.136,0-8.686,3.31-8.686,9.694c0,7.207,5.793,10.173,12.531,10.173
			c8.567,0,16.605-4.857,16.605-14.786c0-12.761-13.296-13.945-13.296-22.632c0-3.544,2.188-5.378,5.435-5.378
			c3.253,0,4.375,1.892,4.375,3.959c0,1.953-1.065,4.136-2.66,5.081c0.769,0.889,1.657,1.242,2.722,1.242
			C464.239,530.456,466.13,527.915,466.13,524.486L466.13,524.486z M483.031,531.641c-12.173,0-16.199,14.184-16.199,20.975
			c0,6.739,3.969,9.347,9.466,9.347c7.264,0,13.176-6.863,14.122-17.795c1.48-0.243,2.903-0.607,4.236-1.084
			c-1.328,3.463-1.882,7.006-1.882,9.532c0,6.739,3.969,9.347,9.466,9.347c7.269,0,13.176-6.863,14.121-17.795
			c1.748-0.286,3.425-0.745,4.953-1.352l-4.017,18.912h8.519l4.021-18.978c0.884-2.956,2.479-5.435,4.608-5.435
			c1.419,0,2.126,1.06,2.126,3.013c0,3.783-2.655,11.052-2.655,15.068c0,3.366,1.829,6.686,6.973,6.686
			c3.133,0,7.679-1.246,10.988-10.942H549.4c-1.299,3.076-2.364,5.201-4.967,5.201c-1.771,0-2.364-1.003-2.364-2.483
			c0-3.31,2.837-10.459,2.837-15.244c0-4.728-2.779-6.682-6.557-6.682c-1.834,0-4.432,0.473-6.915,3.315l0.649-3.075h-8.511
			l-1.677,7.898c-1.647,0.684-3.318,1.142-4.704,1.142c-0.181,0-0.415,0-0.649-0.119c0-6.204-2.483-9.451-7.565-9.451
			c-6.29,0-10.406,3.787-12.919,8.381c-1.681,0.712-3.4,1.189-4.814,1.189c-0.177,0-0.411,0-0.649-0.119
			C490.597,534.888,488.113,531.641,483.031,531.641L483.031,531.641z M478.657,556.637c-2.245,0-3.014-0.884-3.014-4.79
			c0-5.788,3.668-16.601,7.861-16.601c1.537,0,2.13,0.945,2.244,3.424c-1.061,0.474-1.829,1.538-1.829,3.19
			c0,1.185,0.353,2.188,1.595,2.483C484.569,551.316,481.556,556.637,478.657,556.637L478.657,556.637z M504.603,556.637
			c-2.244,0-3.014-0.884-3.014-4.79c0-5.788,3.663-16.601,7.857-16.601c1.538,0,2.13,0.945,2.25,3.424
			c-1.065,0.474-1.834,1.538-1.834,3.19c0,1.185,0.353,2.188,1.595,2.483C510.517,551.316,507.498,556.637,504.603,556.637z"/>
		<g>
			<g>
				<polygon style="fill-rule:evenodd;clip-rule:evenodd;fill:#FFFFFF;" points="397.469,179.301 535.79,253.504 448.938,415.427 
					310.609,341.214 				"/>
				
					<linearGradient id="SVGID_00000065065332831329267420000004686987385231860373_" gradientUnits="userSpaceOnUse" x1="521.6497" y1="257.582" x2="324.737" y2="337.14">
					<stop  offset="0" style="stop-color:#BCBEC0"/>
					<stop  offset="1" style="stop-color:#E6E7E8"/>
				</linearGradient>
				
					<polygon style="fill-rule:evenodd;clip-rule:evenodd;fill:url(#SVGID_00000065065332831329267420000004686987385231860373_);" points="
					399.374,185.643 529.452,255.412 447.022,409.075 316.944,339.306 				"/>
				
					<rect x="340.698" y="228.242" transform="matrix(0.4727 -0.8812 0.8812 0.4727 -38.8951 529.7166)" style="fill-rule:evenodd;clip-rule:evenodd;fill:#FFFFFF;" width="165" height="138.236"/>
				
					<linearGradient id="SVGID_00000025437798163523139770000004302305324239805114_" gradientUnits="userSpaceOnUse" x1="515.2895" y1="250.9151" x2="354.9712" y2="315.6878">
					<stop  offset="0" style="stop-color:#BCBEC0"/>
					<stop  offset="1" style="stop-color:#E6E7E8"/>
				</linearGradient>
				<path style="fill-rule:evenodd;clip-rule:evenodd;fill:url(#SVGID_00000025437798163523139770000004302305324239805114_);" d="
					M409.876,205.453l97.259,52.173c2.961,1.588,4.098,5.332,2.503,8.293l-52.166,97.261c-1.595,2.971-5.34,4.098-8.305,2.5
					l-97.254-52.17c-2.971-1.593-4.095-5.337-2.502-8.298l52.171-97.257C403.171,204.982,406.91,203.857,409.876,205.453z"/>
				<g>
					<path style="fill-rule:evenodd;clip-rule:evenodd;fill:#E6E7E8;" d="M444.338,379.334c-1.915-1.029-4.298-0.308-5.32,1.603
						c-1.036,1.917-0.31,4.303,1.605,5.329c1.91,1.032,4.298,0.304,5.324-1.606C446.97,382.741,446.249,380.363,444.338,379.334z"/>
					<path style="fill-rule:evenodd;clip-rule:evenodd;fill:#E6E7E8;" d="M434.313,373.956c-1.91-1.028-4.303-0.298-5.315,1.605
						c-1.026,1.919-0.31,4.303,1.601,5.329c1.91,1.027,4.298,0.304,5.329-1.602C436.95,377.371,436.225,374.983,434.313,373.956z"/>
					<path style="fill-rule:evenodd;clip-rule:evenodd;fill:#E6E7E8;" d="M424.294,368.581c-1.905-1.022-4.298-0.303-5.32,1.617
						c-1.026,1.898-0.305,4.288,1.605,5.315c1.91,1.029,4.298,0.303,5.32-1.596C426.931,371.998,426.209,369.613,424.294,368.581z"
						/>
					<path style="fill-rule:evenodd;clip-rule:evenodd;fill:#E6E7E8;" d="M414.279,363.209c-1.915-1.027-4.293-0.306-5.329,1.606
						c-1.018,1.913-0.306,4.296,1.618,5.323c1.906,1.031,4.289,0.313,5.315-1.61C416.916,366.623,416.189,364.235,414.279,363.209z"
						/>
					<path style="fill-rule:evenodd;clip-rule:evenodd;fill:#E6E7E8;" d="M404.255,357.836c-1.91-1.029-4.303-0.306-5.325,1.595
						c-1.022,1.925-0.303,4.308,1.61,5.332c1.915,1.029,4.298,0.309,5.324-1.611C406.887,361.243,406.165,358.865,404.255,357.836z"
						/>
				</g>
			</g>
			<g>
				
					<rect x="319.092" y="204.11" transform="matrix(0.2696 -0.963 0.963 0.2696 28.0272 602.1448)" style="fill-rule:evenodd;clip-rule:evenodd;fill:#FFFFFF;" width="183.742" height="156.972"/>
				
					<linearGradient id="SVGID_00000070109800902737077130000007053432254777636515_" gradientUnits="userSpaceOnUse" x1="499.2151" y1="223.0668" x2="322.7015" y2="342.1268">
					<stop  offset="0" style="stop-color:#BCBEC0"/>
					<stop  offset="1" style="stop-color:#E6E7E8"/>
				</linearGradient>
				
					<polygon style="fill-rule:evenodd;clip-rule:evenodd;fill:url(#SVGID_00000070109800902737077130000007053432254777636515_);" points="
					363.396,178.742 505.54,218.531 458.522,386.45 316.381,346.66 				"/>
				
					<rect x="328.459" y="213.479" transform="matrix(0.2696 -0.963 0.963 0.2696 28.0188 602.135)" style="fill-rule:evenodd;clip-rule:evenodd;fill:#FFFFFF;" width="165.001" height="138.235"/>
				
					<linearGradient id="SVGID_00000063627377366711695530000015161003243169625019_" gradientUnits="userSpaceOnUse" x1="491.8731" y1="217.5652" x2="347.3035" y2="315.0786">
					<stop  offset="0" style="stop-color:#BCBEC0"/>
					<stop  offset="1" style="stop-color:#E6E7E8"/>
				</linearGradient>
				<path style="fill-rule:evenodd;clip-rule:evenodd;fill:url(#SVGID_00000063627377366711695530000015161003243169625019_);" d="
					M377.957,195.786l106.283,29.758c3.232,0.908,5.157,4.317,4.245,7.554L458.732,339.38c-0.907,3.247-4.317,5.162-7.56,4.245
					L344.899,313.87c-3.247-0.905-5.163-4.315-4.25-7.553l29.755-106.278C371.307,196.792,374.715,194.879,377.957,195.786z"/>
				<g>
					<path style="fill-rule:evenodd;clip-rule:evenodd;fill:#D1D3D4;" d="M449.434,358.005c-2.092-0.59-4.265,0.633-4.842,2.721
						c-0.598,2.099,0.63,4.267,2.722,4.852c2.092,0.59,4.26-0.635,4.848-2.727C452.743,360.759,451.521,358.591,449.434,358.005z"/>
					<path style="fill-rule:evenodd;clip-rule:evenodd;fill:#D1D3D4;" d="M438.478,354.937c-2.092-0.587-4.265,0.645-4.838,2.723
						c-0.588,2.097,0.63,4.267,2.722,4.853c2.088,0.587,4.261-0.636,4.848-2.723C441.798,357.695,440.57,355.524,438.478,354.937z"
						/>
					<path style="fill-rule:evenodd;clip-rule:evenodd;fill:#D1D3D4;" d="M427.527,351.873c-2.082-0.582-4.26,0.638-4.838,2.732
						c-0.592,2.08,0.631,4.253,2.718,4.841c2.092,0.587,4.265-0.64,4.852-2.715C430.847,354.631,429.624,352.463,427.527,351.873z"
						/>
					<path style="fill-rule:evenodd;clip-rule:evenodd;fill:#D1D3D4;" d="M416.586,348.808c-2.097-0.586-4.26,0.637-4.852,2.727
						c-0.578,2.09,0.635,4.26,2.731,4.843c2.087,0.59,4.26-0.626,4.848-2.728C419.9,351.565,418.678,349.395,416.586,348.808z"/>
					<path style="fill-rule:evenodd;clip-rule:evenodd;fill:#D1D3D4;" d="M405.631,345.746c-2.087-0.59-4.265,0.635-4.848,2.715
						c-0.578,2.102,0.64,4.268,2.731,4.854c2.087,0.585,4.26-0.638,4.848-2.731C408.945,348.497,407.723,346.331,405.631,345.746z"
						/>
				</g>
			</g>
			<g>
				<rect x="313.248" y="176.636" style="fill-rule:evenodd;clip-rule:evenodd;fill:#FFFFFF;" width="156.97" height="183.741"/>
				
					<linearGradient id="SVGID_00000018928966528576590090000013046284779393738898_" gradientUnits="userSpaceOnUse" x1="459.2843" y1="188.0012" x2="324.1792" y2="349.0131">
					<stop  offset="0" style="stop-color:#BCBEC0"/>
					<stop  offset="1" style="stop-color:#E6E7E8"/>
				</linearGradient>
				
					<rect x="317.931" y="181.318" style="fill-rule:evenodd;clip-rule:evenodd;fill:url(#SVGID_00000018928966528576590090000013046284779393738898_);" width="147.607" height="174.371"/>
				<rect x="322.613" y="186.004" style="fill-rule:evenodd;clip-rule:evenodd;fill:#FFFFFF;" width="138.239" height="165.002"/>
				
					<linearGradient id="SVGID_00000063596908803976076570000001547742940868280738_" gradientUnits="userSpaceOnUse" x1="450.3192" y1="185.3014" x2="340.9316" y2="315.6645">
					<stop  offset="0" style="stop-color:#BCBEC0"/>
					<stop  offset="1" style="stop-color:#E6E7E8"/>
				</linearGradient>
				<path style="fill-rule:evenodd;clip-rule:evenodd;fill:url(#SVGID_00000063596908803976076570000001547742940868280738_);" d="
					M336.549,193.81l110.368,0.002c3.362-0.002,6.132,2.763,6.123,6.125l0.009,110.368c0,3.372-2.765,6.137-6.137,6.128H336.554
					c-3.374,0.002-6.134-2.764-6.134-6.125l0.003-110.366C330.417,196.565,333.18,193.805,336.549,193.81z"/>
				<g>
					<path style="fill-rule:evenodd;clip-rule:evenodd;fill:#D1D3D4;" d="M449.114,338.611c2.163,0,3.935-1.768,3.935-3.931
						c0-2.166-1.772-3.933-3.935-3.933c-2.164,0-3.931,1.767-3.931,3.933C445.184,336.844,446.95,338.611,449.114,338.611z"/>
					<path style="fill-rule:evenodd;clip-rule:evenodd;fill:#D1D3D4;" d="M437.743,338.611c2.163,0,3.931-1.768,3.931-3.931
						c0-2.166-1.768-3.933-3.931-3.933c-2.168,0-3.931,1.767-3.931,3.933C433.813,336.844,435.575,338.611,437.743,338.611z"/>
					<path style="fill-rule:evenodd;clip-rule:evenodd;fill:#D1D3D4;" d="M426.372,338.611c2.168,0,3.934-1.768,3.934-3.931
						c0-2.166-1.767-3.933-3.934-3.933c-2.164,0-3.931,1.767-3.931,3.933C422.441,336.844,424.208,338.611,426.372,338.611z"/>
					<path style="fill-rule:evenodd;clip-rule:evenodd;fill:#D1D3D4;" d="M415.001,338.611c2.168,0,3.934-1.768,3.934-3.931
						c0-2.166-1.767-3.933-3.934-3.933c-2.164,0-3.931,1.767-3.931,3.933C411.07,336.844,412.837,338.611,415.001,338.611z"/>
					<path style="fill-rule:evenodd;clip-rule:evenodd;fill:#D1D3D4;" d="M403.63,338.611c2.168,0,3.935-1.768,3.935-3.931
						c0-2.166-1.767-3.933-3.935-3.933c-2.164,0-3.931,1.767-3.931,3.933C399.699,336.844,401.466,338.611,403.63,338.611z"/>
				</g>
			</g>
		</g>
		
			<radialGradient id="SVGID_00000079458087852764219830000014705169456534129309_" cx="398.8486" cy="595.8477" r="283.1802" gradientUnits="userSpaceOnUse">
			<stop  offset="0" style="stop-color:#FFFFFF"/>
			<stop  offset="1" style="stop-color:#E6E7E8"/>
		</radialGradient>
		
			<rect x="125.999" y="621.109" style="fill-rule:evenodd;clip-rule:evenodd;fill:url(#SVGID_00000079458087852764219830000014705169456534129309_);" width="545.699" height="50.523"/>
	</g>
</g>
</svg>
